<?xml version="1.0" encoding="utf-8"?>
<!DOCTYPE svg PUBLIC "-//W3C//DTD SVG 1.1//EN" "http://www.w3.org/Graphics/SVG/1.1/DTD/svg11.dtd">
<svg style="width:308px;height:308px;" version="1.1" id="图形" xmlns="http://www.w3.org/2000/svg" xmlns:xlink="http://www.w3.org/1999/xlink" x="0px" y="0px" width="1024px" height="1024px" viewBox="0 0 1024 1024" enable-background="new 0 0 1024 1024" xml:space="preserve">
  <path class="svgpath" data-index="path_0" fill="#eb4f38" d="M511.999488 61.511959c-248.798483 0-450.489064 201.690582-450.489064 450.489064 0 248.797459 201.690582 450.488041 450.489064 450.488041 248.797459 0 450.489064-201.690582 450.489064-450.488041C962.487529 263.201517 760.796948 61.511959 511.999488 61.511959zM511.999488 937.928692c-235.234559 0-425.929716-190.695157-425.929716-425.928692 0-235.234559 190.695157-425.929716 425.929716-425.929716 235.233536 0 425.929716 190.695157 425.929716 425.929716C937.928181 747.233536 747.233024 937.928692 511.999488 937.928692z" />
<path class="svgpath" data-index="path_1" fill="#eb4f38" d="M459.272613 657.213289c-36.246529 20.621667-77.1798 30.933523-122.795721 30.933523-52.492538 0-94.7909-16.598027-126.895085-49.79715-32.105209-33.19503-48.157813-77.527724-48.157813-132.988874 0-56.084343 17.729803-102.173031 53.195549-138.260947 35.462676-36.08894 80.925101-54.132898 136.38625-54.132898 39.21207 0 72.412217 6.250354 99.595322 18.74697l0 50.617841c-29.057803-18.278295-63.663972-27.417443-103.812367-27.417443-39.527249 0-72.100108 13.514805-97.720625 40.541345-25.623587 27.02961-38.432311 62.649875-38.432311 106.859773 0 45.462424 11.793604 80.84733 35.385928 106.156762 23.588231 25.308409 55.458079 37.963637 95.610568 37.963637 27.652803 0 51.163263-5.308913 70.53752-15.934924l0-98.1893-78.738295 0L333.431533 490.831888l125.842103 0L459.273636 657.213289z" />
<path class="svgpath" data-index="path_2" fill="#eb4f38" d="M518.326591 504.892115c0-58.585303 15.854083-105.219413 47.571459-139.901307 31.712259-34.682917 74.673723-52.023864 128.886439-52.023864 50.461275 0 91.078345 16.953114 121.857349 50.852178 30.775934 33.902134 46.165436 78.035284 46.165436 132.402519 0 58.900481-15.781428 105.61134-47.337121 140.135644-31.559786 34.528398-73.741491 51.789527-126.544091 51.789527-51.55519 0-92.880387-16.949021-123.966383-50.852178C533.870612 603.39557 518.326591 559.25935 518.326591 504.892115zM567.538409 501.142721c0 43.901883 11.208273 79.090313 33.627888 105.570407 22.415522 26.481118 51.671846 39.720653 87.760786 39.720653 38.742373 0 69.167313-12.691043 91.275843-38.080294 22.10546-25.38618 33.159214-60.888765 33.159214-106.508779 0-46.868447-10.82044-83.034135-32.457226-108.500133-21.638833-25.462928-51.284013-38.197974-88.932472-38.197974-37.025265 0-67.020416 13.438057-89.9875 40.307008C579.021951 422.326655 567.538409 457.554994 567.538409 501.142721z" />

</svg>
