<?xml version="1.0" encoding="utf-8"?>
<!DOCTYPE svg PUBLIC "-//W3C//DTD SVG 1.1//EN" "http://www.w3.org/Graphics/SVG/1.1/DTD/svg11.dtd">
<svg style="width:308px;height:308px;" version="1.1" id="图形" xmlns="http://www.w3.org/2000/svg" xmlns:xlink="http://www.w3.org/1999/xlink" x="0px" y="0px" width="1024px" height="1024px" viewBox="0 0 1024 1024" enable-background="new 0 0 1024 1024" xml:space="preserve">
  <path class="svgpath" data-index="path_0" fill="#eb4f38" d="M 612.572 275.55 c -18.5976 8.13631 -22.8648 27.5116 -9.29878 41.0735 c 6.58702 6.59111 12.7842 7.75257 39.912 7.75257 c 37.9759 0 63.5514 10.0734 82.9298 32.5503 c 23.6384 26.7369 26.3501 34.8773 26.3501 83.7003 c 0 43.4015 0 44.1792 10.0734 49.9885 c 23.2516 13.1761 38.7536 -3.09857 44.1761 -46.499 c 6.97485 -56.5766 -26.738 -122.455 -77.498 -152.681 C 695.888 272.06 638.922 264.311 612.572 275.55 L 612.572 275.55 L 612.572 275.55 Z M 421.914 347.627 c -43.4015 15.499 -85.2537 45.3386 -130.203 93.3869 c -106.565 113.155 -99.5902 220.883 17.826 278.234 c 122.067 59.6751 286.37 39.912 375.887 -45.3386 c 67.0368 -63.5535 58.9025 -143.382 -17.4382 -170.506 c -13.566 -4.65093 -17.826 -8.13938 -15.8899 -12.3994 c 6.97485 -17.0514 9.29878 -36.8145 5.42557 -48.4392 c -12.0167 -36.8134 -55.8019 -45.3376 -120.906 -23.2485 l -25.9623 8.91095 l 2.32393 -25.9623 c 2.71381 -30.6132 -3.87321 -47.2778 -22.0891 -56.5786 C 475.78 337.939 446.716 338.712 421.914 347.627 L 421.914 347.627 L 421.914 347.627 Z M 529.645 497.594 c 57.738 15.8889 93.0022 50.7631 93.0022 92.2244 c 0 46.1153 -41.0776 87.5807 -107.73 109.667 c -35.652 11.6258 -101.914 13.9497 -134.468 5.03876 c -61.6112 -17.4361 -96.4886 -51.5388 -96.4886 -95.3302 c 0 -24.0262 10.4643 -44.9477 33.327 -66.2591 c 21.3114 -20.1499 37.586 -29.8417 68.9739 -40.3029 C 433.541 486.743 484.307 484.807 529.645 497.594 L 529.645 497.594 Z M 407.579 535.179 c -39.1384 18.2169 -60.065 46.1163 -60.065 80.9896 c 0 31.7788 13.9528 53.478 44.5629 69.7547 c 23.6384 12.7872 67.0409 11.6258 93.3931 -1.93712 c 33.7118 -17.826 55.8019 -50.7631 55.8019 -82.9328 c -0.393973 -26.3471 -23.6414 -57.7349 -51.151 -68.9729 C 468.031 522.785 430.826 524.331 407.579 535.179 L 407.579 535.179 L 407.579 535.179 Z M 435.868 608.031 c 2.71074 2.71176 4.64786 9.29878 4.64786 15.1122 c 0 19.3783 -32.5503 35.2642 -45.7254 22.0891 c -7.36269 -7.36269 -5.42557 -25.5786 3.09857 -34.1027 C 406.413 602.607 428.502 600.669 435.868 608.031 L 435.868 608.031 Z M 619.159 354.987 c -17.826 17.8291 -5.8134 39.1404 22.4769 39.1404 c 24.411 0 35.259 12.4004 35.259 40.3029 c 0 17.4351 1.55543 22.4739 8.53028 27.1248 c 20.9246 14.7244 37.9759 -1.54929 37.9759 -36.0388 c 0 -42.239 -30.2264 -74.0147 -73.2411 -77.1164 C 630.781 346.85 626.133 348.012 619.159 354.987 L 619.159 354.987 L 619.159 354.987 Z M 619.159 354.987" />
<path class="svgpath" data-index="path_1" fill="#eb4f38" d="M 891.086 735.655 c 62.4636 -106.035 77.715 -236.226 41.4398 -353.855 c -34.5601 -112.067 -115.156 -207.813 -219.454 -261.327 c -110.072 -56.4763 -242.887 -64.1306 -358.392 -19.3865 c -109.517 42.4242 -200.169 128.146 -246.424 236.409 c -24.677 57.7585 -37.1696 119.934 -36.0582 182.805 c 1.10415 62.4933 16.0076 123.74 42.3956 180.279 c 49.6795 106.441 143.684 188.67 254.087 227.404 c 116.918 41.0203 249.385 28.319 357.473 -31.5148 c 16.7863 -9.29264 32.8635 -19.845 48.21 -31.3521 c 4.98862 -3.74018 8.79532 -7.42409 10.5145 -13.6744 c 1.62501 -5.9055 0.788969 -12.3462 -2.30653 -17.6305 c -5.76224 -9.83602 -21.3011 -15.7088 -31.305 -8.20794 c -23.2915 17.4648 -48.2765 32.4889 -74.6389 44.8423 c -3.17634 1.48789 -6.38031 2.9154 -9.5935 4.32244 c -0.914836 0.400113 -6.42125 2.70869 -0.988514 0.438998 c -1.61785 0.676405 -3.24388 1.33132 -4.86991 1.98726 c -7.04546 2.83967 -14.1871 5.44092 -21.3769 7.88969 c -13.829 4.70926 -27.9311 8.59986 -42.1766 11.8274 c -6.8408 1.54929 -13.7297 2.88163 -20.6391 4.08197 c -3.4864 0.605797 -6.98407 1.14406 -10.4848 1.6598 c -6.19714 0.913812 4.98043 -0.62524 -1.23206 0.179079 c -2.44058 0.316202 -4.88526 0.594541 -7.33097 0.867764 c -15.2872 1.70585 -30.6726 2.47128 -46.0508 2.49687 c -15.3823 0.025583 -30.7585 -0.889253 -46.0488 -2.54394 c -1.83479 -0.198521 -3.66753 -0.421602 -5.49925 -0.64366 c -6.21863 -0.756223 4.96815 0.711198 -1.23615 -0.154519 c -3.58976 -0.500397 -7.16826 -1.0714 -10.7437 -1.66594 c -7.45888 -1.24025 -14.8727 -2.73427 -22.2508 -4.3818 c -14.1881 -3.16918 -28.1839 -7.1744 -41.9596 -11.8141 c -6.61363 -2.22671 -13.1546 -4.66218 -19.6465 -7.21943 c -1.62296 -0.639566 -3.23774 -1.2996 -4.85252 -1.95861 c -5.50743 -2.25025 4.50255 1.94223 -0.966001 -0.400113 c -3.74223 -1.6025 -7.44967 -3.28481 -11.1428 -4.9968 c -25.3985 -11.7793 -49.5004 -26.2969 -72.0162 -42.9164 c -1.3436 -0.991584 -2.67595 -2.00056 -4.00829 -3.00852 c -4.57315 -3.46082 3.86093 3.02592 -0.656963 -0.50756 c -2.63194 -2.05787 -5.22705 -4.16383 -7.80885 -6.28412 c -5.59544 -4.59567 -11.0425 -9.36734 -16.3913 -14.2465 c -10.2689 -9.36632 -20.0097 -19.3026 -29.2952 -29.6411 c -4.45547 -4.96099 -8.76359 -10.054 -12.9786 -15.2217 c -1.05401 -1.29141 -2.09164 -2.59613 -3.13029 -3.90084 c -0.664126 -0.833995 -4.16997 -5.3611 -0.522909 -0.627287 c -2.37407 -3.08118 -4.68674 -6.20942 -6.97383 -9.35609 c -8.17008 -11.239 -15.7118 -22.9282 -22.7194 -34.9234 c -7.30231 -12.4997 -13.8689 -25.422 -19.8255 -38.6134 c -0.714268 -1.58306 -1.41012 -3.1743 -2.10494 -4.76656 c -2.37202 -5.43376 1.8747 4.54246 -0.406253 -0.929162 c -1.33644 -3.20602 -2.6125 -6.4366 -3.8681 -9.67536 c -2.72097 -7.01681 -5.20658 -14.1237 -7.54177 -21.2776 c -4.53018 -13.8791 -8.23454 -28.0191 -11.2707 -42.2963 c -1.52166 -7.15496 -2.80591 -14.358 -3.94792 -21.5826 c -0.285502 -1.80614 -0.547469 -3.61534 -0.809435 -5.42557 c -0.890276 -6.15416 0.632403 5.00192 -0.150426 -1.16657 c -0.537236 -4.23239 -0.981351 -8.47604 -1.38965 -12.7228 c -2.90005 -30.209 -2.34235 -60.7312 1.30881 -90.8481 c 0.128937 -1.06424 0.964978 -7.10584 0.11768 -0.994654 c 0.245593 -1.76725 0.512676 -3.53245 0.780783 -5.29663 c 0.535189 -3.52836 1.13894 -7.04649 1.7652 -10.5605 c 1.35588 -7.6134 2.9727 -15.1777 4.75019 -22.7031 c 3.41887 -14.4736 7.70345 -28.7365 12.6542 -42.7578 c 2.36793 -6.70573 4.95178 -13.3337 7.66456 -19.9074 c -2.30039 5.57395 -0.073678 0.193405 0.350994 -0.789992 c 0.674359 -1.55952 1.36714 -3.11085 2.05992 -4.66218 c 1.61785 -3.61943 3.30835 -7.2051 5.02853 -10.7764 c 6.14393 -12.7545 13.0154 -25.1529 20.4211 -37.2156 c 7.40874 -12.0658 15.499 -23.7049 24.0907 -34.9561 c -3.57441 4.6806 -0.033769 0.076748 0.601704 -0.728594 c 1.05298 -1.33337 2.12234 -2.65446 3.19169 -3.97452 c 2.09675 -2.58999 4.24058 -5.14109 6.39873 -7.67889 c 4.67651 -5.49925 9.52698 -10.8491 14.4798 -16.0997 c 9.52596 -10.097 19.6096 -19.6618 30.0862 -28.7662 c 5.02955 -4.37054 10.188 -8.59168 15.4192 -12.7176 c 4.49334 -3.54371 -3.90801 2.97577 0.641613 -0.496304 c 1.32416 -1.01103 2.6606 -2.00568 3.99703 -3.00033 c 3.11801 -2.32188 6.28208 -4.58032 9.46354 -6.8142 c 23.3416 -16.3862 48.4495 -30.209 74.6328 -41.4869 c -5.50436 2.371 -0.116657 0.060375 0.856507 -0.339738 c 1.5851 -0.651846 3.17737 -1.28425 4.76963 -1.91665 c 3.18555 -1.26481 6.39464 -2.46924 9.60987 -3.65423 c 7.00044 -2.57873 14.0848 -4.92415 21.2131 -7.11914 c 14.4327 -4.44524 29.1346 -7.99714 43.9633 -10.8399 c 3.55906 -0.682545 7.1304 -1.29448 10.7048 -1.88391 c 1.78772 -0.294712 3.5785 -0.565888 5.37031 -0.837064 c 1.02331 -0.154519 7.13858 -0.99977 1.09391 -0.191358 c 7.78224 -1.04173 15.5983 -1.81535 23.4255 -2.4191 c 15.0569 -1.16248 30.1773 -1.41626 45.269 -0.953721 c 7.24091 0.222057 14.4736 0.677429 21.692 1.27197 c 3.6092 0.297782 7.21226 0.665149 10.8133 1.05503 c 1.8 0.195451 3.59794 0.414439 5.39487 0.632403 c 2.62785 0.337691 2.39556 0.298805 -0.695848 -0.11461 c 1.19624 0.163729 2.39147 0.332575 3.58566 0.506537 c 14.9372 2.14383 29.7383 5.19123 44.3521 8.94165 c 14.2741 3.66344 28.321 8.1844 42.1172 13.3572 c 3.20909 1.20341 6.39464 2.46617 9.57201 3.74735 c 0.974188 0.39295 6.38543 2.65855 0.862647 0.323365 c 1.57794 0.667196 3.14769 1.35383 4.71744 2.04047 c 6.80089 2.97577 13.5035 6.17463 20.1356 9.50856 c 12.7565 6.41306 25.1396 13.5578 37.1696 21.2438 c 5.74996 3.67367 11.3863 7.52232 16.948 11.4743 c 2.71688 1.92996 5.39794 3.90903 8.06775 5.90345 c 1.33439 0.997724 2.65753 2.0108 3.97964 3.02387 c -4.95894 -3.79851 1.00182 0.832971 1.92075 1.56668 c 21.7053 17.3225 41.5698 36.9178 59.4316 58.1698 c 2.14383 2.5511 4.24263 5.14007 6.32506 7.74131 c 1.04787 1.30881 2.07936 2.63092 3.11187 3.95201 c -3.65218 -4.67753 -0.122797 -0.12382 0.509606 0.713244 c 4.39203 5.81545 8.59577 11.7721 12.6777 17.8086 c 7.84978 11.6104 15.0426 23.6578 21.6859 35.9948 c 3.18862 5.9229 6.19817 11.941 9.09617 18.0102 c 1.449 3.03513 2.84275 6.09686 4.21807 9.16575 c 0.687662 1.53496 1.35588 3.0781 2.02512 4.62125 c 0.9967 2.33416 0.884137 2.06094 -0.338714 -0.819668 c 0.430812 1.03456 0.858554 2.0722 1.28118 3.11085 c 5.55655 13.5731 10.2975 27.4717 14.3795 41.5554 c 3.77702 13.0328 6.82955 26.2703 9.31618 39.6071 c 0.648776 3.48026 1.23104 6.97179 1.79181 10.4664 c 0.280386 1.74781 0.538259 3.49868 0.796132 5.24956 c 0.883113 5.9976 -0.641613 -5.07969 0.140193 0.933255 c 0.912789 7.02295 1.6025 14.0735 2.15611 21.1333 c 2.22364 28.3272 1.3917 56.8702 -2.1162 85.0552 c -0.340761 2.62887 -0.309038 2.40068 0.098237 -0.684592 c -0.24764 1.79795 -0.518816 3.59283 -0.788969 5.38771 c -0.542352 3.58976 -1.15327 7.16826 -1.78874 10.7427 c -1.27095 7.14984 -2.77418 14.2557 -4.41864 21.3277 c -3.13439 13.4831 -7.03728 26.782 -11.5122 39.8782 c -2.22774 6.51948 -4.65809 12.9684 -7.20715 19.3691 c -0.63752 1.60045 -1.29448 3.19271 -1.95144 4.78396 c 2.27788 -5.51767 0.025583 -0.080841 -0.387833 0.874927 c -1.36714 3.16202 -2.7926 6.29845 -4.23751 9.42567 c -5.78066 12.5099 -12.2572 24.6914 -19.2504 36.5638 c -6.33324 10.7509 -2.51529 25.0229 8.20794 31.305 C 870.568 750.182 884.766 746.382 891.086 735.655 L 891.086 735.655 Z" />

</svg>
