<?xml version="1.0" encoding="utf-8"?>
<!DOCTYPE svg PUBLIC "-//W3C//DTD SVG 1.1//EN" "http://www.w3.org/Graphics/SVG/1.1/DTD/svg11.dtd">
<svg style="width:308px;height:308px;" version="1.1" id="图形" xmlns="http://www.w3.org/2000/svg" xmlns:xlink="http://www.w3.org/1999/xlink" x="0px" y="0px" width="1024px" height="1024px" viewBox="0 0 1024 1024" enable-background="new 0 0 1024 1024" xml:space="preserve">
  <path class="svgpath" data-index="path_0" fill="#eb4f38" d="M902.870101 847.033342l-781.741225 0c-30.829177 0-55.838805-25.010652-55.838805-55.838805L65.290071 232.805463c0-30.82713 25.009628-55.837782 55.838805-55.837782l781.741225 0c30.828153 0 55.838805 25.010652 55.838805 55.837782L958.708906 791.194537C958.709929 822.022691 933.698254 847.033342 902.870101 847.033342L902.870101 847.033342zM840.269282 295.370466c-10.868546-10.906408-28.572784-10.906408-39.478169 0l-96.772117 95.718111-136.179678 136.179678 0-0.326435c-15.050803 14.358024-35.154696 23.448062-57.583544 23.448062-20.90412 0-39.407561-8.433075-54.094066-21.085245l0 1.453096-182.820998-182.784159 1.345649-0.836042-51.512262-51.766042c-10.907432-10.906408-28.574831-10.906408-39.480216 0-10.906408 10.906408-10.906408 28.572784 0 39.479193l176.641246 177.623621-176.641246 176.638176c-10.906408 10.906408-10.906408 28.576877 0 39.482263 10.905385 10.905385 28.6086 10.905385 39.480216 0l176.531752-176.499006 46.167529 46.389586c2.290162 2.616597 4.689817 5.052068 7.307437 7.378045l2.980894 2.981917 0-0.546446c14.395886 11.636026 32.427583 18.868762 52.348304 18.868762 23.195305 0 44.170033-9.452289 59.330329-24.683193l0 1.852186 53.764561-53.183323 177.441472 177.440449c10.905385 10.905385 28.610647 10.905385 39.480216 0 10.905385-10.905385 10.905385-28.575854 0-39.482263l-177.223508-177.221461 178.967223-177.041359C851.176713 323.94325 851.176713 306.276875 840.269282 295.370466L840.269282 295.370466zM840.269282 295.370466" />

</svg>
