<?xml version="1.0" encoding="utf-8"?>
<!DOCTYPE svg PUBLIC "-//W3C//DTD SVG 1.1//EN" "http://www.w3.org/Graphics/SVG/1.1/DTD/svg11.dtd">
<svg style="width:308px;height:308px;" version="1.1" id="图形" xmlns="http://www.w3.org/2000/svg" xmlns:xlink="http://www.w3.org/1999/xlink" x="0px" y="0px" width="1024px" height="1024px" viewBox="0 0 1024 1024" enable-background="new 0 0 1024 1024" xml:space="preserve">
  <path class="svgpath" data-index="path_0" fill="#272636" d="M895.962 927.972 127.987 927.972C57.329 927.972 0 870.692 0 799.985L0 224.016C0 153.308 57.329 96.028 127.987 96.028l767.975 0c70.708 0 128.038 57.279 128.038 127.988l0 575.968C1024 870.692 966.67 927.972 895.962 927.972L895.962 927.972zM159.998 159.997 512 466.018l352.004-306.021L159.998 159.997 159.998 159.997zM959.982 224.016c0-18.433-7.879-34.884-20.316-46.578L512 544.009 84.334 177.439c-12.436 11.694-20.315 28.145-20.315 46.578l0 575.968c0 35.329 28.64 64.018 63.968 64.018l767.975 0c35.38 0 64.019-28.69 64.019-64.018L959.981 224.016 959.982 224.016z" />

</svg>
