<svg version="1.1"
	 xmlns="http://www.w3.org/2000/svg" xmlns:xlink="http://www.w3.org/1999/xlink" xmlns:a="http://ns.adobe.com/AdobeSVGViewerExtensions/3.0/"
	 x="0px" y="0px" width="25px" height="21px" viewBox="-0.3 -0.9 25 21" enable-background="new -0.3 -0.9 25 21"
	 xml:space="preserve">
<defs>
</defs>
<path fill="#FFFFFF" d="M21.1,4.8c0,0.2,0,0.4,0,0.6c0,6.4-4.8,13.8-13.7,13.8c-2.7,0-5.2-0.8-7.4-2.2c0.4,0,0.8,0,1.2,0
	c2.2,0,4.3-0.7,6-2c-2.1,0-3.9-1.4-4.5-3.4c0.3,0.1,0.6,0.1,0.9,0.1c0.5,0,0.9-0.1,1.3-0.2C2.6,11,0.9,9.1,0.9,6.8c0,0,0,0,0,0
	c0.6,0.3,1.4,0.6,2.2,0.6C1.8,6.5,1,5,1,3.3c0-0.9,0.2-1.7,0.6-2.4c2.4,3,5.9,4.9,9.9,5c-0.1-0.3-0.1-0.7-0.1-1
	c0-2.7,2.2-4.9,4.8-4.9c1.4,0,2.6,0.6,3.5,1.5c1.1-0.2,2.2-0.6,3.1-1.1c-0.4,1.1-1.1,2-2.1,2.6c1-0.1,1.9-0.4,2.8-0.8
	C22.8,3.2,22,4.1,21.1,4.8z"/>
</svg>
